<svg viewBox="0 0 280 280" fill="none" xmlns="http://www.w3.org/2000/svg" class="filecat filecat--curious" aria-hidden="true"><ellipse class="filecat-shadow" cx="143" cy="260" rx="76" ry="6" fill="#e6e6e0"></ellipse><g class="filecat-companion"><path class="filecat-tail" d="M190 180c25 22 45 9 47-6 2-13-8-18-16-7-6 8-16 5-22-3Z" fill="#111"></path><path class="filecat-foot filecat-foot--left" d="M94 218h31l-4 28c-3 18-28 17-28-1Z" fill="#111"></path><path class="filecat-foot filecat-foot--right" d="M154 218h32l-1 27c-1 18-26 19-29 1Z" fill="#111"></path><path d="M79 118c-15 23-15 66 0 90 12 22 29 28 61 28 32 0 51-7 63-28 15-26 13-66-2-90Z" fill="#111"></path><g><g class="filecat-head"><path d="M79 96c-5-21-10-53 3-57 11-4 24 12 34 22 15-5 31-5 46 0 11-12 24-27 34-21 10 7 7 38 3 56 12 15 16 32 10 46-9 21-33 25-73 25-39 0-64-5-69-27-4-16 2-31 12-44Z" fill="#111"></path><g class="filecat-eyes"><ellipse cx="111" cy="97" rx="18" ry="23" fill="white"></ellipse><ellipse cx="157" cy="97" rx="18" ry="23" fill="white"></ellipse><g class="filecat-pupils"><ellipse cx="114" cy="99" rx="6.5" ry="10" fill="#111"></ellipse><ellipse cx="160" cy="99" rx="6.5" ry="10" fill="#111"></ellipse></g></g><ellipse cx="134" cy="124" rx="3.2" ry="2.2" fill="white"></ellipse></g></g><g transform="translate(83 137)"><g class=""><path d="M0 0h80l24 22v66H0Z" fill="white" stroke="#111" stroke-width="4" stroke-linejoin="round"></path><path d="M80 1v22h23M17 38h65M17 51h54M17 64h33" stroke="#111" stroke-width="4" stroke-linecap="round" stroke-linejoin="round"></path><text x="69" y="78" fill="#111" font-family="Arial, sans-serif" font-weight="900" font-size="10">DOC</text></g></g><path class="filecat-bite" d="M128 136q6 9 12 0" stroke="#111" stroke-width="5" stroke-linecap="round"></path><g fill="#111"><path d="M81 161c-17-5-24 12-9 22l13 6c11 3 19-10 10-18Z"></path><path d="M190 165c-10-11-25-6-21 6 4 10 22 16 30 9 7-6-2-12-9-15Z"></path></g></g></svg>
